<?xml version="1.0" standalone="no"?>
<!DOCTYPE svg PUBLIC "-//W3C//DTD SVG 20010904//EN"
 "http://www.w3.org/TR/2001/REC-SVG-20010904/DTD/svg10.dtd">
<svg version="1.0" xmlns="http://www.w3.org/2000/svg"
 width="212.000000pt" height="238.000000pt" viewBox="0 0 212.000000 238.000000"
 preserveAspectRatio="xMidYMid meet">
<metadata>
Created by potrace 1.15, written by Peter Selinger 2001-2017
</metadata>
<g transform="translate(0.000000,238.000000) scale(0.100000,-0.100000)"
fill="#000000" stroke="none">
<path d="M1005 2259 c-212 -29 -395 -106 -510 -215 -38 -37 -62 -61 -53 -54 9
6 22 9 27 5 6 -3 8 0 5 8 -3 8 5 21 19 30 13 9 32 23 41 32 9 9 16 11 16 5 0
-6 5 -8 10 -5 6 4 8 11 5 16 -3 5 1 6 10 2 13 -5 14 -7 3 -14 -9 -6 -4 -9 15
-9 16 0 26 4 23 9 -3 5 1 12 10 15 8 3 12 2 9 -3 -12 -20 14 -20 55 0 40 20
61 21 314 21 220 0 284 -3 341 -16 39 -10 86 -21 105 -25 19 -5 43 -12 53 -16
10 -4 17 -3 17 4 0 7 12 3 28 -8 15 -10 51 -24 80 -31 28 -7 52 -16 52 -21 0
-5 18 -9 40 -9 22 0 40 -4 40 -8 0 -9 64 -42 81 -42 6 0 8 4 5 9 -3 4 5 8 17
7 12 0 23 -7 23 -13 1 -7 2 -18 3 -25 0 -6 4 -8 8 -5 3 4 13 1 22 -6 8 -6 0
11 -20 38 -19 28 -42 50 -50 50 -8 0 -13 8 -11 16 3 21 -73 90 -92 83 -8 -3
-17 -1 -21 5 -4 7 1 9 12 5 34 -11 -42 46 -110 82 -108 57 -236 85 -407 89
-80 2 -176 0 -215 -6z"/>
<path d="M1802 230 c-15 -24 -16 -60 -2 -60 6 0 8 11 4 28 -8 33 10 19 21 -16
6 -21 4 -23 -17 -20 -17 2 -24 11 -28 33 -4 20 -8 26 -13 18 -5 -8 -29 -13
-55 -13 -31 0 -60 -8 -84 -23 -69 -41 -143 -95 -188 -136 l-45 -41 263 1 c144
0 262 2 262 4 0 17 -35 73 -43 68 -6 -3 -7 -1 -3 5 4 6 -8 42 -25 79 -18 37
-31 74 -30 81 3 17 -2 15 -17 -8z"/>
</g>
</svg>
